<svg width="24" height="24" viewBox="0 0 24 24" fill="none" xmlns="http://www.w3.org/2000/svg">
<path opacity="0.2" d="M17.5 0.5H6.5C4.9087 0.5 3.38258 1.13214 2.25736 2.25736C1.13214 3.38258 0.5 4.9087 0.5 6.5V17.5C0.5 19.0913 1.13214 20.6174 2.25736 21.7426C3.38258 22.8679 4.9087 23.5 6.5 23.5H17.5C19.0913 23.5 20.6174 22.8679 21.7426 21.7426C22.8679 20.6174 23.5 19.0913 23.5 17.5V6.5C23.5 4.9087 22.8679 3.38258 21.7426 2.25736C20.6174 1.13214 19.0913 0.5 17.5 0.5ZM12 17C11.0111 17 10.0444 16.7068 9.22215 16.1573C8.3999 15.6079 7.75904 14.827 7.3806 13.9134C7.00216 12.9998 6.90315 11.9945 7.09607 11.0245C7.289 10.0546 7.7652 9.16373 8.46447 8.46447C9.16373 7.7652 10.0546 7.289 11.0245 7.09607C11.9945 6.90315 12.9998 7.00216 13.9134 7.3806C14.827 7.75904 15.6079 8.3999 16.1573 9.22215C16.7068 10.0444 17 11.0111 17 12C17 13.3261 16.4732 14.5979 15.5355 15.5355C14.5979 16.4732 13.3261 17 12 17Z" fill="#F28705"/>
<path d="M12 17C14.7614 17 17 14.7614 17 12C17 9.23858 14.7614 7 12 7C9.23858 7 7 9.23858 7 12C7 14.7614 9.23858 17 12 17Z" stroke="#F28705" stroke-miterlimit="10"/>
<path d="M17.5 0.5H6.5C3.18629 0.5 0.5 3.18629 0.5 6.5V17.5C0.5 20.8137 3.18629 23.5 6.5 23.5H17.5C20.8137 23.5 23.5 20.8137 23.5 17.5V6.5C23.5 3.18629 20.8137 0.5 17.5 0.5Z" stroke="#F28705" stroke-linecap="round" stroke-linejoin="round"/>
<path d="M18.5 7C19.3284 7 20 6.32843 20 5.5C20 4.67157 19.3284 4 18.5 4C17.6716 4 17 4.67157 17 5.5C17 6.32843 17.6716 7 18.5 7Z" fill="#F28705"/>
</svg>
