<svg width="25" height="25" viewBox="0 0 25 25" fill="none" xmlns="http://www.w3.org/2000/svg">
<path opacity="0.2" d="M12.5 24.5C19.1274 24.5 24.5 19.1274 24.5 12.5C24.5 5.87258 19.1274 0.5 12.5 0.5C5.87258 0.5 0.5 5.87258 0.5 12.5C0.5 19.1274 5.87258 24.5 12.5 24.5Z" fill="#F28705"/>
<path d="M12.5 24.5C19.1274 24.5 24.5 19.1274 24.5 12.5C24.5 5.87258 19.1274 0.5 12.5 0.5C5.87258 0.5 0.5 5.87258 0.5 12.5C0.5 19.1274 5.87258 24.5 12.5 24.5Z" stroke="#F28705" stroke-linecap="round" stroke-linejoin="round"/>
<path d="M17.5 7.50003H15.5C15.1056 7.49837 14.7147 7.57484 14.35 7.72502C13.9853 7.8752 13.6539 8.09611 13.375 8.37502C13.0961 8.65392 12.8752 8.9853 12.725 9.35002C12.5748 9.71475 12.4984 10.1056 12.5 10.5V24.5" stroke="#F28705" stroke-linecap="round" stroke-linejoin="round"/>
<path d="M8.5 14.5H16.5" stroke="#F28705" stroke-linecap="round" stroke-linejoin="round"/>
</svg>
