<svg width="25" height="23" viewBox="0 0 25 23" fill="none" xmlns="http://www.w3.org/2000/svg">
<path opacity="0.2" d="M24.5 8.5L14.6875 15.5H10.3125L0.5 8.5L12.5 0.5L24.5 8.5Z" fill="#F28705"/>
<path d="M0.5 8.5V21.5C0.5 21.7652 0.605357 22.0196 0.792893 22.2071C0.98043 22.3946 1.23478 22.5 1.5 22.5H23.5C23.7652 22.5 24.0196 22.3946 24.2071 22.2071C24.3946 22.0196 24.5 21.7652 24.5 21.5V8.5L12.5 0.5L0.5 8.5Z" stroke="#F28705" stroke-linecap="round" stroke-linejoin="round"/>
<path d="M10.3125 15.5L0.8125 22.2125" stroke="#F28705" stroke-linecap="round" stroke-linejoin="round"/>
<path d="M24.1875 22.2125L14.6875 15.5" stroke="#F28705" stroke-linecap="round" stroke-linejoin="round"/>
<path d="M24.5 8.5L14.6875 15.5H10.3125L0.5 8.5" stroke="#F28705" stroke-linecap="round" stroke-linejoin="round"/>
</svg>
