<svg width="25" height="25" viewBox="0 0 25 25" fill="none" xmlns="http://www.w3.org/2000/svg">
<path opacity="0.2" d="M12.5131 0.475092C10.3932 0.477925 8.31177 1.04111 6.4797 2.10758C4.64764 3.17404 3.13007 4.70588 2.08078 6.54784C1.0315 8.3898 0.487809 10.4764 0.504805 12.5962C0.521801 14.716 1.09888 16.7936 2.17757 18.6185L1.00137 22.7727C0.951591 22.9429 0.948513 23.1234 0.99246 23.2952C1.03641 23.467 1.12576 23.6238 1.25115 23.7492C1.37654 23.8746 1.53336 23.9639 1.70516 24.0079C1.87696 24.0518 2.05741 24.0488 2.22762 23.999L6.38184 22.8228C7.97166 23.7644 9.75727 24.3265 11.5998 24.4655C13.4423 24.6044 15.292 24.3165 17.0051 23.624C18.7181 22.9315 20.2484 21.8531 21.4767 20.4728C22.705 19.0925 23.5984 17.4474 24.0873 15.6655C24.5761 13.8836 24.6474 12.0129 24.2954 10.199C23.9434 8.38511 23.1777 6.67686 22.0578 5.20714C20.938 3.73742 19.4942 2.54585 17.8387 1.72512C16.1833 0.904384 14.3608 0.476618 12.5131 0.475092ZM15.5286 19.4944C14.2115 19.4977 12.9067 19.2407 11.6892 18.7382C10.4717 18.2357 9.36551 17.4975 8.43416 16.5662C7.50281 15.6348 6.76467 14.5286 6.26215 13.3111C5.75964 12.0936 5.50264 10.7889 5.50595 9.47173C5.50926 8.5447 5.87984 7.65677 6.53653 7.00242C7.19321 6.34808 8.08247 5.98068 9.0095 5.98068C9.16245 5.97946 9.3129 6.01949 9.44502 6.09656C9.57714 6.17363 9.68604 6.28489 9.76027 6.41863L11.2243 8.97122C11.3113 9.12639 11.356 9.30175 11.3538 9.47966C11.3516 9.65758 11.3026 9.83178 11.2117 9.98475L10.0355 11.9492C10.638 13.2895 11.7109 14.3623 13.0511 14.9648L15.0156 13.7886C15.1686 13.6977 15.3428 13.6488 15.5207 13.6466C15.6986 13.6444 15.874 13.689 16.0291 13.7761L18.5817 15.2401C18.7155 15.3143 18.8267 15.4232 18.9038 15.5553C18.9809 15.6874 19.0209 15.8379 19.0197 15.9909C19.0164 16.9169 18.6479 17.8042 17.9943 18.4602C17.3407 19.1162 16.4546 19.4878 15.5286 19.4944Z" fill="#F28705"/>
<path d="M2.17755 18.6186C0.687144 16.1041 0.165818 13.132 0.711443 10.2603C1.25707 7.38864 2.83212 4.81487 5.14091 3.02218C7.4497 1.2295 10.3334 0.341189 13.2508 0.524018C16.1681 0.706847 18.9184 1.94824 20.9853 4.01515C23.0522 6.08206 24.2936 8.83234 24.4764 11.7497C24.6592 14.667 23.7709 17.5507 21.9783 19.8595C20.1856 22.1683 17.6118 23.7434 14.7401 24.289C11.8684 24.8346 8.89636 24.3133 6.38182 22.8229V22.8229L2.2276 23.9991C2.0574 24.0489 1.87694 24.0519 1.70514 24.008C1.53334 23.964 1.37653 23.8747 1.25113 23.7493C1.12574 23.6239 1.03639 23.4671 0.992444 23.2953C0.948497 23.1235 0.951575 22.943 1.00135 22.7728L2.17755 18.6186Z" stroke="#F28705" stroke-linecap="round" stroke-linejoin="round"/>
<path d="M15.5283 19.4944C14.2112 19.4977 12.9064 19.2407 11.6889 18.7382C10.4714 18.2357 9.36519 17.4976 8.43384 16.5662C7.50249 15.6349 6.76435 14.5287 6.26183 13.3112C5.75931 12.0937 5.50232 10.7889 5.50562 9.47176C5.50893 8.54472 5.87952 7.65679 6.5362 7.00245C7.19289 6.34811 8.08214 5.9807 9.00918 5.98071V5.98071C9.16213 5.97949 9.31258 6.01952 9.4447 6.09659C9.57682 6.17366 9.68572 6.28492 9.75994 6.41866L11.2239 8.97125C11.311 9.12642 11.3557 9.30178 11.3535 9.47969C11.3513 9.6576 11.3023 9.8318 11.2114 9.98478L10.0352 11.9493C10.6377 13.2895 11.7106 14.3624 13.0508 14.9648L15.0153 13.7886C15.1683 13.6978 15.3425 13.6488 15.5204 13.6466C15.6983 13.6444 15.8736 13.6891 16.0288 13.7761L18.5814 15.2401C18.7151 15.3143 18.8264 15.4232 18.9035 15.5554C18.9805 15.6875 19.0206 15.8379 19.0193 15.9909C19.0161 16.9169 18.6476 17.8043 17.994 18.4602C17.3403 19.1162 16.4543 19.4878 15.5283 19.4944V19.4944Z" stroke="#F28705" stroke-linecap="round" stroke-linejoin="round"/>
</svg>
