<svg width="27" height="23" viewBox="0 0 27 23" fill="none" xmlns="http://www.w3.org/2000/svg">
<path opacity="0.2" d="M11.821 5.50045C11.821 2.75045 14.1335 0.462955 16.8835 0.500455C17.8465 0.511573 18.7859 0.800603 19.5886 1.3328C20.3914 1.865 21.0233 2.61771 21.4085 3.50045H25.821L21.7835 7.53795C21.5229 11.5937 19.7276 15.3979 16.7625 18.1773C13.7974 20.9566 9.88506 22.5025 5.82099 22.5005C1.82099 22.5005 0.820988 21.0005 0.820988 21.0005C0.820988 21.0005 4.82099 19.5005 6.82099 16.5005C6.82099 16.5005 -1.17901 12.5005 0.820988 1.50045C0.820988 1.50045 5.82099 6.50045 11.821 7.50045V5.50045Z" fill="#F28705"/>
<path d="M11.821 5.50045C11.821 2.75045 14.1335 0.462955 16.8835 0.500455C17.8465 0.511573 18.7859 0.800603 19.5886 1.3328C20.3914 1.865 21.0233 2.61771 21.4085 3.50045H25.821L21.7835 7.53795C21.5229 11.5937 19.7276 15.3979 16.7625 18.1773C13.7974 20.9566 9.88506 22.5025 5.82099 22.5005C1.82099 22.5005 0.820988 21.0005 0.820988 21.0005C0.820988 21.0005 4.82099 19.5005 6.82099 16.5005C6.82099 16.5005 -1.17901 12.5005 0.820988 1.50045C0.820988 1.50045 5.82099 6.50045 11.821 7.50045V5.50045Z" stroke="#F28705" stroke-linecap="round" stroke-linejoin="round"/>
</svg>
