<svg width="27" height="21" viewBox="0 0 27 21" fill="none" xmlns="http://www.w3.org/2000/svg">
<path opacity="0.2" d="M25.825 3.42508C25.7457 3.11983 25.5958 2.83748 25.3874 2.60081C25.1789 2.36414 24.9178 2.17977 24.625 2.06258C20.4375 0.462575 13.5 0.500075 13.5 0.500075C13.5 0.500075 6.5625 0.462575 2.375 2.06258C2.08221 2.17977 1.82106 2.36414 1.61262 2.60081C1.40418 2.83748 1.25427 3.11983 1.175 3.42508C0.8875 4.55008 0.5 6.72508 0.5 10.4501C0.5 14.1751 0.8875 16.3501 1.175 17.4751C1.25427 17.7803 1.40418 18.0627 1.61262 18.2993C1.82106 18.536 2.08221 18.7204 2.375 18.8376C6.5625 20.4376 13.5 20.4001 13.5 20.4001C13.5 20.4001 20.4375 20.4376 24.625 18.8376C24.9178 18.7204 25.1789 18.536 25.3874 18.2993C25.5958 18.0627 25.7457 17.7803 25.825 17.4751C26.1125 16.3501 26.5 14.1751 26.5 10.4501C26.5 6.72508 26.1125 4.55008 25.825 3.42508ZM11.5 14.4501V6.45008L17.5 10.4501L11.5 14.4501Z" fill="#F28705"/>
<path d="M17.5 10.4502L11.5 6.4502V14.4502L17.5 10.4502Z" stroke="#F28705" stroke-linecap="round" stroke-linejoin="round"/>
<path d="M0.5 10.4501C0.5 14.1751 0.8875 16.3501 1.175 17.4751C1.25427 17.7803 1.40418 18.0627 1.61262 18.2993C1.82106 18.536 2.08221 18.7204 2.375 18.8376C6.5625 20.4376 13.5 20.4001 13.5 20.4001C13.5 20.4001 20.4375 20.4376 24.625 18.8376C24.9178 18.7204 25.1789 18.536 25.3874 18.2993C25.5958 18.0627 25.7457 17.7803 25.825 17.4751C26.1125 16.3501 26.5 14.1751 26.5 10.4501C26.5 6.72508 26.1125 4.55008 25.825 3.42508C25.7457 3.11983 25.5958 2.83748 25.3874 2.60081C25.1789 2.36414 24.9178 2.17977 24.625 2.06258C20.4375 0.462575 13.5 0.500075 13.5 0.500075C13.5 0.500075 6.5625 0.462575 2.375 2.06258C2.08221 2.17977 1.82106 2.36414 1.61262 2.60081C1.40418 2.83748 1.25427 3.11983 1.175 3.42508C0.8875 4.55008 0.5 6.72508 0.5 10.4501Z" stroke="#F28705" stroke-linecap="round" stroke-linejoin="round"/>
</svg>
