<svg width="24" height="24" viewBox="0 0 24 24" fill="none" xmlns="http://www.w3.org/2000/svg">
<path opacity="0.2" d="M7.07459 12.0787C8.10538 14.2073 9.82664 15.9242 11.9579 16.9495C12.1151 17.024 12.289 17.0562 12.4625 17.043C12.6359 17.0298 12.803 16.9717 12.9471 16.8744L16.0775 14.7833C16.2158 14.6895 16.3756 14.6323 16.542 14.6169C16.7084 14.6016 16.876 14.6287 17.0291 14.6957L22.8891 17.2125C23.0894 17.2958 23.2567 17.4427 23.3653 17.6305C23.4739 17.8183 23.5178 18.0366 23.4901 18.2517C23.3044 19.7014 22.5968 21.0337 21.4998 21.9994C20.4028 22.965 18.9915 23.4979 17.53 23.4982C13.0136 23.4982 8.68214 21.7041 5.48856 18.5105C2.29499 15.3169 0.500856 10.9855 0.500856 6.4691C0.501185 5.0076 1.03404 3.5963 1.9997 2.49926C2.96536 1.40223 4.29767 0.694651 5.74732 0.508919C5.96249 0.48128 6.18077 0.525139 6.36856 0.633741C6.55636 0.742343 6.70324 0.909667 6.7866 1.10995L9.3034 6.98248C9.36885 7.13317 9.39623 7.29765 9.38313 7.46142C9.37002 7.62519 9.31684 7.78322 9.22827 7.92159L7.1372 11.102C7.0441 11.2459 6.98946 11.4112 6.9785 11.5822C6.96754 11.7532 7.00062 11.9241 7.07459 12.0787Z" fill="#F28705"/>
<path d="M7.07459 12.0787C8.10538 14.2073 9.82664 15.9242 11.9579 16.9495C12.1151 17.024 12.289 17.0562 12.4625 17.043C12.6359 17.0298 12.803 16.9717 12.9471 16.8744L16.0775 14.7833C16.2158 14.6895 16.3756 14.6323 16.542 14.6169C16.7084 14.6016 16.876 14.6287 17.0291 14.6957L22.8891 17.2125C23.0894 17.2958 23.2567 17.4427 23.3653 17.6305C23.4739 17.8183 23.5178 18.0366 23.4901 18.2517C23.3044 19.7014 22.5968 21.0337 21.4998 21.9994C20.4028 22.965 18.9915 23.4979 17.53 23.4982C13.0136 23.4982 8.68214 21.7041 5.48856 18.5105C2.29499 15.3169 0.500856 10.9855 0.500856 6.4691C0.501185 5.0076 1.03404 3.5963 1.9997 2.49926C2.96536 1.40223 4.29767 0.694651 5.74732 0.508919C5.96249 0.48128 6.18077 0.525139 6.36856 0.633741C6.55636 0.742343 6.70324 0.909667 6.7866 1.10995L9.3034 6.98248C9.36885 7.13317 9.39623 7.29765 9.38313 7.46142C9.37002 7.62519 9.31684 7.78322 9.22827 7.92159L7.1372 11.102C7.0441 11.2459 6.98946 11.4112 6.9785 11.5822C6.96754 11.7532 7.00062 11.9241 7.07459 12.0787V12.0787Z" stroke="#F28705" stroke-linecap="round" stroke-linejoin="round"/>
</svg>
